<svg xmlns="http://www.w3.org/2000/svg" width="512" height="512" viewBox="0 0 512 512" version="1.1"><path d="M 272.415 185.858 L 224.332 252.720 233.916 253.355 C 239.187 253.704, 253.490 253.992, 265.701 253.995 L 287.902 254 273.854 277.170 C 266.128 289.913, 259.578 300.937, 259.298 301.667 C 258.885 302.742, 261.039 302.893, 270.644 302.460 C 277.165 302.166, 310.831 301.024, 345.457 299.922 C 380.083 298.821, 408.569 297.764, 408.759 297.575 C 409.248 297.086, 388.983 296.161, 330.653 294.012 C 302.687 292.982, 279.617 291.951, 279.387 291.721 C 279.157 291.491, 286.602 279.660, 295.930 265.430 C 305.259 251.201, 312.694 239.361, 312.453 239.119 C 312.211 238.878, 298.950 238.415, 282.983 238.090 L 253.953 237.500 270.409 215.151 C 279.460 202.859, 287.085 192.581, 287.355 192.312 C 287.624 192.042, 285.185 198.692, 281.933 207.089 C 278.682 215.485, 276.241 222.574, 276.508 222.842 C 276.990 223.323, 324.679 222.227, 423.500 219.465 C 451.550 218.681, 479.450 217.985, 485.500 217.918 C 509.375 217.653, 489.038 216.060, 441.500 214.471 C 344.656 211.233, 298.098 209.431, 297.567 208.900 C 297.270 208.603, 302.442 188.655, 309.060 164.571 C 315.679 140.486, 320.960 120.379, 320.796 119.888 C 320.632 119.397, 298.861 149.083, 272.415 185.858 M 121.795 211.427 C 64.757 213.159, 17.861 214.806, 17.580 215.087 C 17.299 215.368, 61.716 217.107, 116.285 218.953 C 170.853 220.798, 215.869 222.630, 216.319 223.023 C 216.770 223.417, 209.718 235.383, 200.648 249.615 C 191.578 263.847, 184.355 275.688, 184.596 275.929 C 184.837 276.170, 198.092 276.622, 214.051 276.934 L 243.068 277.500 225.917 301.800 C 216.485 315.165, 208.601 325.934, 208.398 325.731 C 208.195 325.528, 210.889 317.968, 214.386 308.931 C 220.441 293.278, 220.642 292.486, 218.621 292.209 C 217.455 292.048, 193.162 293.061, 164.638 294.459 C 136.113 295.856, 111.401 297, 109.721 297 C 108.041 297, 106.911 297.244, 107.209 297.542 C 107.507 297.841, 128.993 299.376, 154.955 300.955 C 180.917 302.534, 202.274 303.977, 202.414 304.163 C 202.554 304.348, 197.134 324.300, 190.369 348.500 C 183.604 372.700, 178.187 392.898, 178.330 393.385 C 178.554 394.149, 274.929 263.144, 275.833 260.847 C 276.017 260.381, 262.179 260, 245.083 260 C 227.987 260, 214 259.820, 214 259.599 C 214 259.378, 220.525 247.920, 228.500 234.136 C 236.475 220.353, 243 208.833, 243 208.538 C 243 207.780, 237.734 207.906, 121.795 211.427" stroke="none" fill="#0c944b" fill-rule="evenodd"/><path d="" stroke="none" fill="#14944c" fill-rule="evenodd"/></svg>